<!DOCTYPE svg PUBLIC "-//W3C//DTD SVG 1.1//EN" "http://www.w3.org/Graphics/SVG/1.1/DTD/svg11.dtd">

<!-- Uploaded to: SVG Repo, www.svgrepo.com, Transformed by: SVG Repo Mixer Tools -->
<svg xmlns="http://www.w3.org/2000/svg" viewBox="0 0 24 24" fill="#666">
  <g transform="translate(-0.82, -0.82)">
    <path d="M20.003,22.417l-14.396,0c-1.324,0 -2.398,-1.074 -2.398,-2.398l0,-14.404c0,-1.323 1.074,-2.398 2.398,-2.398l14.396,0c1.324,0.001 2.398,1.075 2.398,2.398l0,14.404c0,1.324 -1.074,2.398 -2.398,2.398Zm-10.394,-1.6l0,-15.999l-3.605,0c-0.66,0 -1.196,0.536 -1.196,1.196l0,13.609c0,0.66 0.536,1.196 1.196,1.196l3.605,0Zm9.996,-15.999l-8.396,0l0,15.999l8.396,0c0.66,0 1.196,-0.536 1.196,-1.196l0,-13.609c0,-0.66 -0.536,-1.196 -1.196,-1.196Z"/>
    <rect x="5.844" y="6.417" width="2.628" height="0.8"/>
    <rect x="5.844" y="9.617" width="2.628" height="0.8"/>
    <rect x="5.844" y="8.017" width="2.628" height="0.8"/>
  </g>
</svg>