<!DOCTYPE svg PUBLIC "-//W3C//DTD SVG 1.1//EN" "http://www.w3.org/Graphics/SVG/1.1/DTD/svg11.dtd">

<!-- Uploaded to: SVG Repo, www.svgrepo.com, Transformed by: SVG Repo Mixer Tools -->
<svg xmlns="http://www.w3.org/2000/svg" viewBox="0 0 24 24" fill="#666">
  <g transform="translate(0, 0)">
   <path d="m19.18,21.6l-14.39,0c-1.33,0 -2.4,-1.08 -2.4,-2.4l0,-14.4c0,-1.33 1.07,-2.4 2.4,-2.4l14.39,0c1.33,0 2.4,1.07 2.4,2.4l0,14.4c0,1.32 -1.07,2.4 -2.4,2.4zm-10.39,-1.6l0,-16l-3.61,0c-0.66,0 -1.19,0.53 -1.19,1.19l0,13.61c0,0.66 0.53,1.2 1.19,1.2l3.61,0zm10,-16c-3.37,0 -6.63,0 -10,0l0,16l10,0c0.66,0 1.19,-0.54 1.19,-1.2l0,-13.61c0,-0.66 -0.53,-1.19 -1.19,-1.19z"/>
   <path d="M12,7v10M7,12h10" stroke="#666" stroke-width="1.5" stroke-linecap="round" fill="none"/>
  </g>
</svg>

