<?xml version="1.0" encoding="utf-8"?>
<svg t="1743388602008" class="icon" viewBox="0 0 1024 1024" version="1.1" xmlns="http://www.w3.org/2000/svg" p-id="2492" width="200" height="200">
  <path fill="#ff6a00" stroke="#ff6a00" d="M 767.599 288.5 C 710.399 288.5 653.199 310.1 609.599 353.7 C 609.199 354.1 608.799 354.5 608.399 355.3 L 368.399 625.7 C 305.999 687.3 205.599 686.9 143.599 624.9 C 113.599 594.9 96.799 554.9 96.799 512.1 C 96.799 469.3 113.199 429.3 143.599 399.3 C 205.599 337.3 306.399 336.9 368.799 398.5 L 402.799 436.9 C 414.399 450.1 434.799 451.3 447.999 439.7 C 461.199 428.1 462.399 407.7 450.799 394.5 L 415.999 355.3 C 415.599 354.9 415.199 354.5 414.799 353.7 C 327.599 266.5 185.599 266.9 98.399 354.1 C 55.599 396.5 32.399 452.5 32.799 512.1 C 33.199 571.7 55.999 628.1 98.399 670.5 C 185.599 757.3 327.199 757.3 414.399 670.5 C 414.799 670.1 415.199 669.7 415.599 668.9 L 655.599 398.5 C 685.599 368.9 725.599 352.5 767.599 352.5 C 810.399 352.5 850.399 369.3 880.399 399.3 C 910.399 429.3 927.199 469.7 927.199 512.1 C 927.199 554.9 910.399 594.9 880.399 624.9 C 818.399 686.9 717.599 686.9 655.599 625.7 L 621.599 587.3 C 609.999 574.1 589.599 572.9 576.399 584.5 C 563.199 596.1 561.999 616.5 573.599 629.7 L 608.399 668.9 C 608.799 669.3 609.199 669.7 609.599 670.5 C 696.799 757.3 838.399 757.3 925.599 670.5 C 967.999 628.1 991.199 572.1 991.199 512.1 C 991.199 452.5 967.999 396.1 925.999 354.1 C 882.399 310.5 825.199 288.5 767.599 288.5 Z" p-id="2493" style="transform-box: fill-box; transform-origin: 50% 50%;"/>
</svg>